<?xml version="1.0" encoding="UTF-8"?>
<svg id="Capa_1" xmlns="http://www.w3.org/2000/svg" version="1.1" xmlns:xlink="http://www.w3.org/1999/xlink" viewBox="0 0 70.6 83.5">
  <!-- Generator: Adobe Illustrator 29.3.1, SVG Export Plug-In . SVG Version: 2.1.0 Build 151)  -->
  <defs>
    <style>
      .st0 {
        fill: #c100fe;
      }
    </style>
  </defs>
  <path class="st0" d="M69.1,0h-27.6l-9.2,9.8-7.9,8.5-.2,12.5c0,.9.8,1.7,1.7,1.7h9.8v37h8.6V23.8h-11.4v-1.8l12.5-13.8s.2,0,.4,0h15.1v66.6c-.8,1-2,1.7-3.4,1.7H12.1c-2.4,0-4.4-2-4.4-4.4V11.9c0-2.4,2-4.4,4.4-4.4h6L25.2,0h-16C4.8,1.2,1.5,5.3,1.5,10.1v62.9c0,5.8,4.7,10.5,10.5,10.5h57.1V0Z"/>
</svg>